<svg id="Capa_1" data-name="Capa 1" xmlns="http://www.w3.org/2000/svg" viewBox="0 0 301 201"><defs><style>.cls-1{fill:#ffffff;stroke:#fff;stroke-miterlimit:10;}</style></defs><title>Envelope-icon</title><path class="cls-1" d="M432.11,325.88,560.34,197.64H281.54L409.79,325.88A15.81,15.81,0,0,0,432.11,325.88Z" transform="translate(-270.44 -197.14)"/><path class="cls-1" d="M471,308.25l-28.24,28.23a30.82,30.82,0,0,1-43.53,0l-28.24-28.24-89.39,89.4H560.33Z" transform="translate(-270.44 -197.14)"/><polygon class="cls-1" points="89.89 100.5 0.5 11.11 0.5 189.89 89.89 100.5"/><polygon class="cls-1" points="300.5 11.11 211.11 100.5 300.5 189.9 300.5 11.11"/><polygon class="cls-1" points="300.5 0.51 300.5 0.5 300.49 0.5 300.5 0.51"/><polygon class="cls-1" points="300.5 200.5 300.5 200.5 300.5 200.5 300.5 200.5"/></svg>